<mxfile host="app.diagrams.net" agent="Mozilla/5.0 (Windows NT 10.0; Win64; x64; rv:109.0) Gecko/20100101 Firefox/114.0" version="24.7.8">
  <diagram id="C5RBs43oDa-KdzZeNtuy" name="Page-1">
    <mxGraphModel dx="1687" dy="878" grid="1" gridSize="10" guides="1" tooltips="1" connect="1" arrows="1" fold="1" page="1" pageScale="1" pageWidth="827" pageHeight="1169" math="0" shadow="0">
      <root>
        <mxCell id="WIyWlLk6GJQsqaUBKTNV-0" />
        <mxCell id="WIyWlLk6GJQsqaUBKTNV-1" parent="WIyWlLk6GJQsqaUBKTNV-0" />
        <mxCell id="z7_V1d8GZcHk-OMy8LCR-1" value="MuehleFrame" style="swimlane;fontStyle=0;childLayout=stackLayout;horizontal=1;startSize=26;fillColor=none;horizontalStack=0;resizeParent=1;resizeParentMax=0;resizeLast=0;collapsible=1;marginBottom=0;whiteSpace=wrap;html=1;" vertex="1" parent="WIyWlLk6GJQsqaUBKTNV-1">
          <mxGeometry x="100" y="170" width="140" height="52" as="geometry" />
        </mxCell>
        <mxCell id="z7_V1d8GZcHk-OMy8LCR-9" value="DrawBoard" style="swimlane;fontStyle=0;childLayout=stackLayout;horizontal=1;startSize=26;fillColor=none;horizontalStack=0;resizeParent=1;resizeParentMax=0;resizeLast=0;collapsible=1;marginBottom=0;whiteSpace=wrap;html=1;" vertex="1" parent="WIyWlLk6GJQsqaUBKTNV-1">
          <mxGeometry x="100" y="310" width="140" height="52" as="geometry" />
        </mxCell>
        <mxCell id="z7_V1d8GZcHk-OMy8LCR-14" value="MuehleLogik" style="swimlane;fontStyle=0;childLayout=stackLayout;horizontal=1;startSize=26;fillColor=none;horizontalStack=0;resizeParent=1;resizeParentMax=0;resizeLast=0;collapsible=1;marginBottom=0;whiteSpace=wrap;html=1;" vertex="1" parent="WIyWlLk6GJQsqaUBKTNV-1">
          <mxGeometry x="380" y="170" width="140" height="52" as="geometry" />
        </mxCell>
        <mxCell id="z7_V1d8GZcHk-OMy8LCR-15" value="" style="endArrow=open;html=1;endSize=12;startArrow=diamondThin;startSize=14;startFill=1;edgeStyle=orthogonalEdgeStyle;align=left;verticalAlign=bottom;rounded=0;entryX=0;entryY=0.25;entryDx=0;entryDy=0;exitX=1;exitY=0.25;exitDx=0;exitDy=0;" edge="1" parent="WIyWlLk6GJQsqaUBKTNV-1" source="z7_V1d8GZcHk-OMy8LCR-1" target="z7_V1d8GZcHk-OMy8LCR-14">
          <mxGeometry x="-1" y="3" relative="1" as="geometry">
            <mxPoint x="250" y="90" as="sourcePoint" />
            <mxPoint x="180" y="232" as="targetPoint" />
          </mxGeometry>
        </mxCell>
        <mxCell id="z7_V1d8GZcHk-OMy8LCR-18" value="CircleButton" style="swimlane;fontStyle=0;childLayout=stackLayout;horizontal=1;startSize=26;fillColor=none;horizontalStack=0;resizeParent=1;resizeParentMax=0;resizeLast=0;collapsible=1;marginBottom=0;whiteSpace=wrap;html=1;" vertex="1" parent="WIyWlLk6GJQsqaUBKTNV-1">
          <mxGeometry x="100" y="450" width="140" height="52" as="geometry" />
        </mxCell>
        <mxCell id="z7_V1d8GZcHk-OMy8LCR-20" value="" style="endArrow=open;html=1;endSize=12;startArrow=diamondThin;startSize=14;startFill=1;edgeStyle=orthogonalEdgeStyle;align=left;verticalAlign=bottom;rounded=0;entryX=0.5;entryY=0;entryDx=0;entryDy=0;exitX=0.5;exitY=1;exitDx=0;exitDy=0;" edge="1" parent="WIyWlLk6GJQsqaUBKTNV-1" source="z7_V1d8GZcHk-OMy8LCR-1" target="z7_V1d8GZcHk-OMy8LCR-9">
          <mxGeometry x="-1" y="3" relative="1" as="geometry">
            <mxPoint x="250" y="193" as="sourcePoint" />
            <mxPoint x="420" y="193" as="targetPoint" />
          </mxGeometry>
        </mxCell>
        <mxCell id="z7_V1d8GZcHk-OMy8LCR-21" value="" style="endArrow=open;html=1;endSize=12;startArrow=diamondThin;startSize=14;startFill=1;edgeStyle=orthogonalEdgeStyle;align=left;verticalAlign=bottom;rounded=0;entryX=0.5;entryY=0;entryDx=0;entryDy=0;exitX=0.5;exitY=1;exitDx=0;exitDy=0;" edge="1" parent="WIyWlLk6GJQsqaUBKTNV-1">
          <mxGeometry x="-1" y="3" relative="1" as="geometry">
            <mxPoint x="169.5" y="362" as="sourcePoint" />
            <mxPoint x="169.5" y="450" as="targetPoint" />
          </mxGeometry>
        </mxCell>
        <mxCell id="z7_V1d8GZcHk-OMy8LCR-24" value="n" style="edgeLabel;html=1;align=center;verticalAlign=middle;resizable=0;points=[];" vertex="1" connectable="0" parent="z7_V1d8GZcHk-OMy8LCR-21">
          <mxGeometry x="1" y="-2" relative="1" as="geometry">
            <mxPoint x="13" y="-10" as="offset" />
          </mxGeometry>
        </mxCell>
        <mxCell id="z7_V1d8GZcHk-OMy8LCR-25" value="&lt;div&gt;1&lt;/div&gt;" style="edgeLabel;html=1;align=center;verticalAlign=middle;resizable=0;points=[];" vertex="1" connectable="0" parent="z7_V1d8GZcHk-OMy8LCR-21">
          <mxGeometry x="-0.75" y="1" relative="1" as="geometry">
            <mxPoint x="10" as="offset" />
          </mxGeometry>
        </mxCell>
        <mxCell id="z7_V1d8GZcHk-OMy8LCR-28" value="Spielbrett" style="swimlane;fontStyle=0;childLayout=stackLayout;horizontal=1;startSize=26;fillColor=none;horizontalStack=0;resizeParent=1;resizeParentMax=0;resizeLast=0;collapsible=1;marginBottom=0;whiteSpace=wrap;html=1;" vertex="1" parent="WIyWlLk6GJQsqaUBKTNV-1">
          <mxGeometry x="350" y="410" width="140" height="52" as="geometry" />
        </mxCell>
        <mxCell id="z7_V1d8GZcHk-OMy8LCR-29" value="" style="endArrow=open;html=1;endSize=12;startArrow=diamondThin;startSize=14;startFill=1;edgeStyle=orthogonalEdgeStyle;align=left;verticalAlign=bottom;rounded=0;entryX=0.5;entryY=0;entryDx=0;entryDy=0;" edge="1" parent="WIyWlLk6GJQsqaUBKTNV-1" target="z7_V1d8GZcHk-OMy8LCR-28">
          <mxGeometry x="-1" y="3" relative="1" as="geometry">
            <mxPoint x="450" y="220" as="sourcePoint" />
            <mxPoint x="420" y="193" as="targetPoint" />
          </mxGeometry>
        </mxCell>
        <mxCell id="z7_V1d8GZcHk-OMy8LCR-31" value="&lt;div&gt;Feld&lt;/div&gt;" style="swimlane;fontStyle=0;childLayout=stackLayout;horizontal=1;startSize=26;fillColor=none;horizontalStack=0;resizeParent=1;resizeParentMax=0;resizeLast=0;collapsible=1;marginBottom=0;whiteSpace=wrap;html=1;" vertex="1" parent="WIyWlLk6GJQsqaUBKTNV-1">
          <mxGeometry x="350" y="620" width="140" height="52" as="geometry" />
        </mxCell>
        <mxCell id="z7_V1d8GZcHk-OMy8LCR-72" value="+ inhalt: Inhalt" style="text;strokeColor=none;fillColor=none;align=left;verticalAlign=top;spacingLeft=4;spacingRight=4;overflow=hidden;rotatable=0;points=[[0,0.5],[1,0.5]];portConstraint=eastwest;whiteSpace=wrap;html=1;" vertex="1" parent="z7_V1d8GZcHk-OMy8LCR-31">
          <mxGeometry y="26" width="140" height="26" as="geometry" />
        </mxCell>
        <mxCell id="z7_V1d8GZcHk-OMy8LCR-32" value="" style="endArrow=open;html=1;endSize=12;startArrow=diamondThin;startSize=14;startFill=1;edgeStyle=orthogonalEdgeStyle;align=left;verticalAlign=bottom;rounded=0;entryX=0.5;entryY=0;entryDx=0;entryDy=0;exitX=0.5;exitY=1;exitDx=0;exitDy=0;" edge="1" parent="WIyWlLk6GJQsqaUBKTNV-1" source="z7_V1d8GZcHk-OMy8LCR-28" target="z7_V1d8GZcHk-OMy8LCR-31">
          <mxGeometry x="-1" y="3" relative="1" as="geometry">
            <mxPoint x="480" y="360" as="sourcePoint" />
            <mxPoint x="479.5" y="430" as="targetPoint" />
          </mxGeometry>
        </mxCell>
        <mxCell id="z7_V1d8GZcHk-OMy8LCR-36" value="" style="endArrow=open;html=1;endSize=12;startArrow=diamondThin;startSize=14;startFill=1;edgeStyle=orthogonalEdgeStyle;align=left;verticalAlign=bottom;rounded=0;entryX=0;entryY=0.5;entryDx=0;entryDy=0;exitX=1;exitY=0.5;exitDx=0;exitDy=0;" edge="1" parent="WIyWlLk6GJQsqaUBKTNV-1" source="z7_V1d8GZcHk-OMy8LCR-14">
          <mxGeometry x="-1" y="3" relative="1" as="geometry">
            <mxPoint x="610" y="280" as="sourcePoint" />
            <mxPoint x="640" y="220" as="targetPoint" />
          </mxGeometry>
        </mxCell>
        <mxCell id="z7_V1d8GZcHk-OMy8LCR-37" value="Use" style="endArrow=open;endSize=12;dashed=1;html=1;rounded=0;entryX=0;entryY=0.5;entryDx=0;entryDy=0;" edge="1" parent="WIyWlLk6GJQsqaUBKTNV-1" target="z7_V1d8GZcHk-OMy8LCR-28">
          <mxGeometry width="160" relative="1" as="geometry">
            <mxPoint x="240" y="346" as="sourcePoint" />
            <mxPoint x="470" y="410" as="targetPoint" />
          </mxGeometry>
        </mxCell>
        <mxCell id="z7_V1d8GZcHk-OMy8LCR-38" value="Use" style="endArrow=open;endSize=12;dashed=1;html=1;rounded=0;entryX=0.143;entryY=0;entryDx=0;entryDy=0;exitX=0.75;exitY=1;exitDx=0;exitDy=0;entryPerimeter=0;" edge="1" parent="WIyWlLk6GJQsqaUBKTNV-1" source="z7_V1d8GZcHk-OMy8LCR-9" target="z7_V1d8GZcHk-OMy8LCR-31">
          <mxGeometry width="160" relative="1" as="geometry">
            <mxPoint x="220" y="362" as="sourcePoint" />
            <mxPoint x="380" y="478" as="targetPoint" />
          </mxGeometry>
        </mxCell>
        <mxCell id="z7_V1d8GZcHk-OMy8LCR-39" value="" style="endArrow=open;endFill=1;endSize=12;html=1;rounded=0;exitX=1;exitY=0.25;exitDx=0;exitDy=0;entryX=0;entryY=1;entryDx=0;entryDy=0;" edge="1" parent="WIyWlLk6GJQsqaUBKTNV-1" source="z7_V1d8GZcHk-OMy8LCR-9" target="z7_V1d8GZcHk-OMy8LCR-14">
          <mxGeometry width="160" relative="1" as="geometry">
            <mxPoint x="310" y="410" as="sourcePoint" />
            <mxPoint x="470" y="410" as="targetPoint" />
          </mxGeometry>
        </mxCell>
        <mxCell id="z7_V1d8GZcHk-OMy8LCR-40" value="&lt;div&gt;SetPhase&lt;/div&gt;" style="swimlane;fontStyle=0;childLayout=stackLayout;horizontal=1;startSize=26;fillColor=none;horizontalStack=0;resizeParent=1;resizeParentMax=0;resizeLast=0;collapsible=1;marginBottom=0;whiteSpace=wrap;html=1;" vertex="1" parent="WIyWlLk6GJQsqaUBKTNV-1">
          <mxGeometry x="500" y="500" width="140" height="52" as="geometry" />
        </mxCell>
        <mxCell id="z7_V1d8GZcHk-OMy8LCR-41" value="«interface»&lt;br&gt;&lt;div&gt;&lt;b&gt;Spielphase&lt;/b&gt;&lt;/div&gt;" style="html=1;whiteSpace=wrap;" vertex="1" parent="WIyWlLk6GJQsqaUBKTNV-1">
          <mxGeometry x="610" y="380" width="110" height="50" as="geometry" />
        </mxCell>
        <mxCell id="z7_V1d8GZcHk-OMy8LCR-42" value="&lt;div&gt;MovePhase&lt;/div&gt;" style="swimlane;fontStyle=0;childLayout=stackLayout;horizontal=1;startSize=26;fillColor=none;horizontalStack=0;resizeParent=1;resizeParentMax=0;resizeLast=0;collapsible=1;marginBottom=0;whiteSpace=wrap;html=1;" vertex="1" parent="WIyWlLk6GJQsqaUBKTNV-1">
          <mxGeometry x="670" y="500" width="140" height="52" as="geometry" />
        </mxCell>
        <mxCell id="z7_V1d8GZcHk-OMy8LCR-43" value="" style="endArrow=open;html=1;endSize=12;startArrow=diamondThin;startSize=14;startFill=1;edgeStyle=orthogonalEdgeStyle;align=left;verticalAlign=bottom;rounded=0;entryX=0.5;entryY=0;entryDx=0;entryDy=0;exitX=0.75;exitY=1;exitDx=0;exitDy=0;" edge="1" parent="WIyWlLk6GJQsqaUBKTNV-1" source="z7_V1d8GZcHk-OMy8LCR-14" target="z7_V1d8GZcHk-OMy8LCR-41">
          <mxGeometry x="-1" y="3" relative="1" as="geometry">
            <mxPoint x="530" y="206" as="sourcePoint" />
            <mxPoint x="650" y="206" as="targetPoint" />
          </mxGeometry>
        </mxCell>
        <mxCell id="z7_V1d8GZcHk-OMy8LCR-44" value="" style="endArrow=block;dashed=1;endFill=0;endSize=12;html=1;rounded=0;entryX=0.25;entryY=1;entryDx=0;entryDy=0;exitX=0.5;exitY=0;exitDx=0;exitDy=0;" edge="1" parent="WIyWlLk6GJQsqaUBKTNV-1" source="z7_V1d8GZcHk-OMy8LCR-40" target="z7_V1d8GZcHk-OMy8LCR-41">
          <mxGeometry width="160" relative="1" as="geometry">
            <mxPoint x="310" y="410" as="sourcePoint" />
            <mxPoint x="470" y="410" as="targetPoint" />
          </mxGeometry>
        </mxCell>
        <mxCell id="z7_V1d8GZcHk-OMy8LCR-45" value="" style="endArrow=block;dashed=1;endFill=0;endSize=12;html=1;rounded=0;entryX=0.75;entryY=1;entryDx=0;entryDy=0;exitX=0.5;exitY=0;exitDx=0;exitDy=0;" edge="1" parent="WIyWlLk6GJQsqaUBKTNV-1" source="z7_V1d8GZcHk-OMy8LCR-42" target="z7_V1d8GZcHk-OMy8LCR-41">
          <mxGeometry width="160" relative="1" as="geometry">
            <mxPoint x="560" y="420" as="sourcePoint" />
            <mxPoint x="628" y="350" as="targetPoint" />
          </mxGeometry>
        </mxCell>
        <mxCell id="z7_V1d8GZcHk-OMy8LCR-46" value="&lt;div&gt;manipulate&lt;/div&gt;" style="endArrow=open;endSize=12;dashed=1;html=1;rounded=0;exitX=0;exitY=0.5;exitDx=0;exitDy=0;entryX=0.75;entryY=1;entryDx=0;entryDy=0;" edge="1" parent="WIyWlLk6GJQsqaUBKTNV-1" source="z7_V1d8GZcHk-OMy8LCR-40" target="z7_V1d8GZcHk-OMy8LCR-28">
          <mxGeometry width="160" relative="1" as="geometry">
            <mxPoint x="250" y="356" as="sourcePoint" />
            <mxPoint x="440" y="380" as="targetPoint" />
          </mxGeometry>
        </mxCell>
        <mxCell id="z7_V1d8GZcHk-OMy8LCR-47" value="&lt;div&gt;manipulate&lt;/div&gt;" style="endArrow=open;endSize=12;dashed=1;html=1;rounded=0;exitX=0;exitY=0;exitDx=0;exitDy=0;entryX=1;entryY=0.75;entryDx=0;entryDy=0;" edge="1" parent="WIyWlLk6GJQsqaUBKTNV-1" source="z7_V1d8GZcHk-OMy8LCR-42" target="z7_V1d8GZcHk-OMy8LCR-28">
          <mxGeometry width="160" relative="1" as="geometry">
            <mxPoint x="490" y="446" as="sourcePoint" />
            <mxPoint x="445" y="382" as="targetPoint" />
          </mxGeometry>
        </mxCell>
        <mxCell id="z7_V1d8GZcHk-OMy8LCR-52" value="Inhalt" style="swimlane;fontStyle=1;align=center;verticalAlign=middle;childLayout=stackLayout;horizontal=1;startSize=29;horizontalStack=0;resizeParent=1;resizeParentMax=0;resizeLast=0;collapsible=0;marginBottom=0;html=1;whiteSpace=wrap;" vertex="1" parent="WIyWlLk6GJQsqaUBKTNV-1">
          <mxGeometry x="630" y="590" width="140" height="120" as="geometry" />
        </mxCell>
        <mxCell id="z7_V1d8GZcHk-OMy8LCR-53" value="&amp;lt;&amp;lt;enum&amp;gt;&amp;gt;" style="text;html=1;strokeColor=none;fillColor=none;align=center;verticalAlign=middle;spacingLeft=4;spacingRight=4;overflow=hidden;rotatable=0;points=[[0,0.5],[1,0.5]];portConstraint=eastwest;whiteSpace=wrap;" vertex="1" parent="z7_V1d8GZcHk-OMy8LCR-52">
          <mxGeometry y="29" width="140" height="25" as="geometry" />
        </mxCell>
        <mxCell id="z7_V1d8GZcHk-OMy8LCR-54" value="&lt;div&gt;schwarz&lt;/div&gt;&lt;div&gt;weiss&lt;/div&gt;&lt;div&gt;leer&lt;/div&gt;&lt;div&gt;verboten&lt;/div&gt;&lt;div&gt;&lt;br&gt;&lt;/div&gt;" style="text;html=1;strokeColor=none;fillColor=none;align=left;verticalAlign=middle;spacingLeft=4;spacingRight=4;overflow=hidden;rotatable=0;points=[[0,0.5],[1,0.5]];portConstraint=eastwest;whiteSpace=wrap;" vertex="1" parent="z7_V1d8GZcHk-OMy8LCR-52">
          <mxGeometry y="54" width="140" height="66" as="geometry" />
        </mxCell>
        <mxCell id="z7_V1d8GZcHk-OMy8LCR-55" value="Inhalt inhalt" style="text;html=1;align=center;verticalAlign=middle;resizable=0;points=[];autosize=1;strokeColor=none;fillColor=none;" vertex="1" parent="WIyWlLk6GJQsqaUBKTNV-1">
          <mxGeometry x="325" y="558" width="90" height="30" as="geometry" />
        </mxCell>
        <mxCell id="z7_V1d8GZcHk-OMy8LCR-57" value="&lt;div&gt;Farbe&lt;/div&gt;" style="swimlane;fontStyle=1;align=center;verticalAlign=middle;childLayout=stackLayout;horizontal=1;startSize=29;horizontalStack=0;resizeParent=1;resizeParentMax=0;resizeLast=0;collapsible=0;marginBottom=0;html=1;whiteSpace=wrap;" vertex="1" parent="WIyWlLk6GJQsqaUBKTNV-1">
          <mxGeometry x="640" y="20" width="140" height="90" as="geometry" />
        </mxCell>
        <mxCell id="z7_V1d8GZcHk-OMy8LCR-58" value="&amp;lt;&amp;lt;enum&amp;gt;&amp;gt;" style="text;html=1;strokeColor=none;fillColor=none;align=center;verticalAlign=middle;spacingLeft=4;spacingRight=4;overflow=hidden;rotatable=0;points=[[0,0.5],[1,0.5]];portConstraint=eastwest;whiteSpace=wrap;" vertex="1" parent="z7_V1d8GZcHk-OMy8LCR-57">
          <mxGeometry y="29" width="140" height="25" as="geometry" />
        </mxCell>
        <mxCell id="z7_V1d8GZcHk-OMy8LCR-59" value="&lt;div&gt;SCHWARZ&lt;/div&gt;&lt;div&gt;WEISS&lt;br&gt;&lt;/div&gt;" style="text;html=1;strokeColor=none;fillColor=none;align=left;verticalAlign=middle;spacingLeft=4;spacingRight=4;overflow=hidden;rotatable=0;points=[[0,0.5],[1,0.5]];portConstraint=eastwest;whiteSpace=wrap;" vertex="1" parent="z7_V1d8GZcHk-OMy8LCR-57">
          <mxGeometry y="54" width="140" height="36" as="geometry" />
        </mxCell>
        <mxCell id="z7_V1d8GZcHk-OMy8LCR-60" value="" style="endArrow=open;html=1;endSize=12;startArrow=diamondThin;startSize=14;startFill=1;edgeStyle=orthogonalEdgeStyle;align=left;verticalAlign=bottom;rounded=0;entryX=0.5;entryY=1;entryDx=0;entryDy=0;exitX=0.5;exitY=0;exitDx=0;exitDy=0;" edge="1" parent="WIyWlLk6GJQsqaUBKTNV-1" target="z7_V1d8GZcHk-OMy8LCR-57">
          <mxGeometry x="-1" y="3" relative="1" as="geometry">
            <mxPoint x="710" y="170" as="sourcePoint" />
            <mxPoint x="590" y="130" as="targetPoint" />
          </mxGeometry>
        </mxCell>
        <mxCell id="z7_V1d8GZcHk-OMy8LCR-67" value="Spieler" style="swimlane;fontStyle=0;childLayout=stackLayout;horizontal=1;startSize=26;fillColor=none;horizontalStack=0;resizeParent=1;resizeParentMax=0;resizeLast=0;collapsible=1;marginBottom=0;whiteSpace=wrap;html=1;" vertex="1" parent="WIyWlLk6GJQsqaUBKTNV-1">
          <mxGeometry x="640" y="170" width="140" height="104" as="geometry" />
        </mxCell>
        <mxCell id="z7_V1d8GZcHk-OMy8LCR-68" value="+ name: String" style="text;strokeColor=none;fillColor=none;align=left;verticalAlign=top;spacingLeft=4;spacingRight=4;overflow=hidden;rotatable=0;points=[[0,0.5],[1,0.5]];portConstraint=eastwest;whiteSpace=wrap;html=1;" vertex="1" parent="z7_V1d8GZcHk-OMy8LCR-67">
          <mxGeometry y="26" width="140" height="26" as="geometry" />
        </mxCell>
        <mxCell id="z7_V1d8GZcHk-OMy8LCR-69" value="+ farbe: Farbe" style="text;strokeColor=none;fillColor=none;align=left;verticalAlign=top;spacingLeft=4;spacingRight=4;overflow=hidden;rotatable=0;points=[[0,0.5],[1,0.5]];portConstraint=eastwest;whiteSpace=wrap;html=1;" vertex="1" parent="z7_V1d8GZcHk-OMy8LCR-67">
          <mxGeometry y="52" width="140" height="26" as="geometry" />
        </mxCell>
        <mxCell id="z7_V1d8GZcHk-OMy8LCR-70" value="+ ateine: int" style="text;strokeColor=none;fillColor=none;align=left;verticalAlign=top;spacingLeft=4;spacingRight=4;overflow=hidden;rotatable=0;points=[[0,0.5],[1,0.5]];portConstraint=eastwest;whiteSpace=wrap;html=1;" vertex="1" parent="z7_V1d8GZcHk-OMy8LCR-67">
          <mxGeometry y="78" width="140" height="26" as="geometry" />
        </mxCell>
        <mxCell id="z7_V1d8GZcHk-OMy8LCR-71" value="" style="endArrow=open;html=1;endSize=12;startArrow=diamondThin;startSize=14;startFill=1;edgeStyle=orthogonalEdgeStyle;align=left;verticalAlign=bottom;rounded=0;entryX=-0.018;entryY=0.826;entryDx=0;entryDy=0;exitX=1;exitY=0.5;exitDx=0;exitDy=0;entryPerimeter=0;" edge="1" parent="WIyWlLk6GJQsqaUBKTNV-1" source="z7_V1d8GZcHk-OMy8LCR-31" target="z7_V1d8GZcHk-OMy8LCR-53">
          <mxGeometry x="-1" y="3" relative="1" as="geometry">
            <mxPoint x="530" y="670" as="sourcePoint" />
            <mxPoint x="530" y="828" as="targetPoint" />
          </mxGeometry>
        </mxCell>
        <mxCell id="z7_V1d8GZcHk-OMy8LCR-73" value="LogikException" style="swimlane;fontStyle=0;childLayout=stackLayout;horizontal=1;startSize=26;fillColor=none;horizontalStack=0;resizeParent=1;resizeParentMax=0;resizeLast=0;collapsible=1;marginBottom=0;whiteSpace=wrap;html=1;" vertex="1" parent="WIyWlLk6GJQsqaUBKTNV-1">
          <mxGeometry x="320" y="790" width="140" height="52" as="geometry" />
        </mxCell>
        <mxCell id="z7_V1d8GZcHk-OMy8LCR-74" value="BesetztesFeldException" style="swimlane;fontStyle=0;childLayout=stackLayout;horizontal=1;startSize=26;fillColor=none;horizontalStack=0;resizeParent=1;resizeParentMax=0;resizeLast=0;collapsible=1;marginBottom=0;whiteSpace=wrap;html=1;" vertex="1" parent="WIyWlLk6GJQsqaUBKTNV-1">
          <mxGeometry x="70" y="910" width="140" height="52" as="geometry" />
        </mxCell>
        <mxCell id="z7_V1d8GZcHk-OMy8LCR-75" value="FalscheFarbeException" style="swimlane;fontStyle=0;childLayout=stackLayout;horizontal=1;startSize=26;fillColor=none;horizontalStack=0;resizeParent=1;resizeParentMax=0;resizeLast=0;collapsible=1;marginBottom=0;whiteSpace=wrap;html=1;" vertex="1" parent="WIyWlLk6GJQsqaUBKTNV-1">
          <mxGeometry x="230" y="910" width="140" height="52" as="geometry" />
        </mxCell>
        <mxCell id="z7_V1d8GZcHk-OMy8LCR-76" value="NichtBenachbartExecption" style="swimlane;fontStyle=0;childLayout=stackLayout;horizontal=1;startSize=26;fillColor=none;horizontalStack=0;resizeParent=1;resizeParentMax=0;resizeLast=0;collapsible=1;marginBottom=0;whiteSpace=wrap;html=1;" vertex="1" parent="WIyWlLk6GJQsqaUBKTNV-1">
          <mxGeometry x="390" y="910" width="160" height="52" as="geometry" />
        </mxCell>
        <mxCell id="z7_V1d8GZcHk-OMy8LCR-78" value="UnremovebleExecption" style="swimlane;fontStyle=0;childLayout=stackLayout;horizontal=1;startSize=26;fillColor=none;horizontalStack=0;resizeParent=1;resizeParentMax=0;resizeLast=0;collapsible=1;marginBottom=0;whiteSpace=wrap;html=1;" vertex="1" parent="WIyWlLk6GJQsqaUBKTNV-1">
          <mxGeometry x="580" y="910" width="160" height="52" as="geometry" />
        </mxCell>
        <mxCell id="z7_V1d8GZcHk-OMy8LCR-79" value="" style="endArrow=block;dashed=1;endFill=0;endSize=12;html=1;rounded=0;entryX=0;entryY=0.75;entryDx=0;entryDy=0;exitX=0.5;exitY=0;exitDx=0;exitDy=0;" edge="1" parent="WIyWlLk6GJQsqaUBKTNV-1" source="z7_V1d8GZcHk-OMy8LCR-74" target="z7_V1d8GZcHk-OMy8LCR-73">
          <mxGeometry width="160" relative="1" as="geometry">
            <mxPoint x="142" y="900" as="sourcePoint" />
            <mxPoint x="210" y="830" as="targetPoint" />
          </mxGeometry>
        </mxCell>
        <mxCell id="z7_V1d8GZcHk-OMy8LCR-82" value="" style="endArrow=block;dashed=1;endFill=0;endSize=12;html=1;rounded=0;entryX=0.75;entryY=1;entryDx=0;entryDy=0;exitX=0.6;exitY=0.016;exitDx=0;exitDy=0;exitPerimeter=0;" edge="1" parent="WIyWlLk6GJQsqaUBKTNV-1" source="z7_V1d8GZcHk-OMy8LCR-76" target="z7_V1d8GZcHk-OMy8LCR-73">
          <mxGeometry width="160" relative="1" as="geometry">
            <mxPoint x="150" y="920" as="sourcePoint" />
            <mxPoint x="330" y="839" as="targetPoint" />
          </mxGeometry>
        </mxCell>
        <mxCell id="z7_V1d8GZcHk-OMy8LCR-83" value="" style="endArrow=block;dashed=1;endFill=0;endSize=12;html=1;rounded=0;entryX=0.25;entryY=1;entryDx=0;entryDy=0;exitX=0.5;exitY=0;exitDx=0;exitDy=0;" edge="1" parent="WIyWlLk6GJQsqaUBKTNV-1" source="z7_V1d8GZcHk-OMy8LCR-75" target="z7_V1d8GZcHk-OMy8LCR-73">
          <mxGeometry width="160" relative="1" as="geometry">
            <mxPoint x="160" y="930" as="sourcePoint" />
            <mxPoint x="340" y="849" as="targetPoint" />
          </mxGeometry>
        </mxCell>
        <mxCell id="z7_V1d8GZcHk-OMy8LCR-84" value="" style="endArrow=block;dashed=1;endFill=0;endSize=12;html=1;rounded=0;exitX=0.5;exitY=0;exitDx=0;exitDy=0;entryX=1;entryY=0.75;entryDx=0;entryDy=0;" edge="1" parent="WIyWlLk6GJQsqaUBKTNV-1" source="z7_V1d8GZcHk-OMy8LCR-78" target="z7_V1d8GZcHk-OMy8LCR-73">
          <mxGeometry width="160" relative="1" as="geometry">
            <mxPoint x="170" y="940" as="sourcePoint" />
            <mxPoint x="450" y="860" as="targetPoint" />
          </mxGeometry>
        </mxCell>
        <mxCell id="z7_V1d8GZcHk-OMy8LCR-85" value="Exception" style="swimlane;fontStyle=0;childLayout=stackLayout;horizontal=1;startSize=26;fillColor=none;horizontalStack=0;resizeParent=1;resizeParentMax=0;resizeLast=0;collapsible=1;marginBottom=0;whiteSpace=wrap;html=1;" vertex="1" parent="WIyWlLk6GJQsqaUBKTNV-1">
          <mxGeometry x="320" y="700" width="140" height="52" as="geometry" />
        </mxCell>
        <mxCell id="z7_V1d8GZcHk-OMy8LCR-86" value="" style="endArrow=block;dashed=1;endFill=0;endSize=12;html=1;rounded=0;entryX=0.5;entryY=1;entryDx=0;entryDy=0;" edge="1" parent="WIyWlLk6GJQsqaUBKTNV-1" source="z7_V1d8GZcHk-OMy8LCR-73" target="z7_V1d8GZcHk-OMy8LCR-85">
          <mxGeometry width="160" relative="1" as="geometry">
            <mxPoint x="310" y="920" as="sourcePoint" />
            <mxPoint x="365" y="852" as="targetPoint" />
          </mxGeometry>
        </mxCell>
        <mxCell id="z7_V1d8GZcHk-OMy8LCR-87" value="RuntimeException" style="swimlane;fontStyle=0;childLayout=stackLayout;horizontal=1;startSize=26;fillColor=none;horizontalStack=0;resizeParent=1;resizeParentMax=0;resizeLast=0;collapsible=1;marginBottom=0;whiteSpace=wrap;html=1;" vertex="1" parent="WIyWlLk6GJQsqaUBKTNV-1">
          <mxGeometry x="320" y="980" width="140" height="52" as="geometry" />
        </mxCell>
        <mxCell id="z7_V1d8GZcHk-OMy8LCR-88" value="VerbotenesFeldException" style="swimlane;fontStyle=0;childLayout=stackLayout;horizontal=1;startSize=26;fillColor=none;horizontalStack=0;resizeParent=1;resizeParentMax=0;resizeLast=0;collapsible=1;marginBottom=0;whiteSpace=wrap;html=1;" vertex="1" parent="WIyWlLk6GJQsqaUBKTNV-1">
          <mxGeometry x="305" y="1090" width="170" height="52" as="geometry" />
        </mxCell>
        <mxCell id="z7_V1d8GZcHk-OMy8LCR-89" value="" style="endArrow=block;dashed=1;endFill=0;endSize=12;html=1;rounded=0;entryX=0.5;entryY=1;entryDx=0;entryDy=0;" edge="1" parent="WIyWlLk6GJQsqaUBKTNV-1" source="z7_V1d8GZcHk-OMy8LCR-88" target="z7_V1d8GZcHk-OMy8LCR-87">
          <mxGeometry width="160" relative="1" as="geometry">
            <mxPoint x="581" y="1101" as="sourcePoint" />
            <mxPoint x="520" y="1032" as="targetPoint" />
          </mxGeometry>
        </mxCell>
        <mxCell id="z7_V1d8GZcHk-OMy8LCR-90" value="1" style="text;html=1;align=center;verticalAlign=middle;resizable=0;points=[];autosize=1;strokeColor=none;fillColor=none;" vertex="1" parent="WIyWlLk6GJQsqaUBKTNV-1">
          <mxGeometry x="530" y="170" width="30" height="30" as="geometry" />
        </mxCell>
        <mxCell id="z7_V1d8GZcHk-OMy8LCR-91" value="2" style="text;html=1;align=center;verticalAlign=middle;resizable=0;points=[];autosize=1;strokeColor=none;fillColor=none;" vertex="1" parent="WIyWlLk6GJQsqaUBKTNV-1">
          <mxGeometry x="600" y="192" width="30" height="30" as="geometry" />
        </mxCell>
      </root>
    </mxGraphModel>
  </diagram>
</mxfile>
